<svg width="490" height="201" viewBox="0 0 490 201" fill="none" xmlns="http://www.w3.org/2000/svg">
<path d="M33.9083 63.6258C30.0138 68.1761 28.9679 69.2189 28.9679 69.2189V51.9718H0V200.5H29.8685V145.054C44.863 169.091 79.0759 165.596 93.3391 146.61C108.995 125.77 109.244 87.236 93.7844 66.3656C79.1466 46.6032 47.3914 44.7717 33.9091 63.6258H33.9083ZM69.2215 127.686C65.3814 135.087 58.6126 138.159 50.3077 137.7C42.1713 137.251 36.5339 133.03 33.0691 125.855C29.9936 119.485 29.1163 112.628 29.1451 105.625C28.828 98.7727 30.048 92.195 33.1336 86.0821C36.8408 78.7368 42.8947 74.6589 51.1904 74.3869C59.2684 74.122 65.7443 77.5122 69.2938 84.7099C76.3019 98.9218 76.5847 113.497 69.2215 127.686Z" fill="#1A1A1A"/>
<path d="M236.064 51.2841C211.205 47.8675 191.899 55.8834 179.213 78.1043L179.185 78.1945C173.942 90.2603 172.655 102.69 174.209 115.638C176.717 136.527 186.601 152.164 207.248 159.114C224.112 164.79 240.914 163.761 256.766 155.496C267.209 150.05 274.074 141.458 276.435 128.989C266.733 128.337 257.796 127.737 249.154 127.156C241.067 141.347 227.386 141.085 218.248 137.848C208.875 134.528 203.218 124.747 204.456 113.685H276.693C278.141 107.159 277.029 101.305 276.511 95.5208C274.388 71.8305 258.089 54.3122 236.064 51.2849V51.2841ZM204.126 94.2853C205.322 81.6049 214.583 73.0722 226.709 73.1072C239.004 73.1429 247.094 80.8737 248.368 94.2853H204.125H204.126Z" fill="#1A1A1A"/>
<path d="M358.874 100.799C354.382 99.0922 349.649 97.9694 344.964 96.8427C337.01 94.9296 328.939 93.4696 321.047 91.3405C316.552 90.1276 312.99 87.2455 313.402 81.9011C313.799 76.7625 317.512 74.3568 321.979 72.9807C333.212 69.5213 341.75 73.1633 348.466 84.508C357.003 83.9711 365.769 83.4202 375.181 82.8281C373.707 72.5945 369.361 64.8863 361.789 59.2691C344.988 46.8047 311.601 47.3331 295.016 60.1075C276.877 74.0779 279.642 100.661 300.269 110.445C306.197 113.257 312.558 114.628 318.926 116.031C325.885 117.565 333.081 118.138 339.762 120.791C343.641 122.331 346.994 124.814 346.918 129.449C346.839 134.249 343.536 136.874 339.343 138.517C326.683 143.477 316.702 139.806 309.088 127.06C299.785 127.633 290.265 128.219 280.425 128.824C281.631 137.063 284.6 143.543 289.948 148.994C298.729 157.945 309.902 161.355 321.85 162.136C339.708 163.303 356.956 161.305 369.957 147.041C384.383 131.214 378.84 108.382 358.874 100.798L358.874 100.799Z" fill="#1A1A1A"/>
<path d="M423.033 120.844V74.7262H442.549V70.9382H442.531V51.611H422.581V26.2407H392.323V51.5853H377.838V74.7255H392.256C392.259 77.2905 392.315 80.1857 392.316 82.3948C392.326 98.5867 392.356 114.778 392.337 130.97C392.325 142.255 395.826 152 406.313 157.32C418.674 163.59 431.599 162.887 444.923 158.796C443.212 150.932 441.672 143.852 440.157 136.891C423.685 137.761 423.04 136.791 423.032 120.843L423.033 120.844Z" fill="#1A1A1A"/>
<path d="M179.214 51.8568C164.946 46.5722 154.555 51.6028 143.3 69.2415V52.0869H137.378C129.373 52.0869 121.611 52.0869 113.861 52.0869V159.752H143.914C143.914 157.014 143.914 154.74 143.914 152.467C143.921 134.6 143.796 116.733 143.978 98.8683C144.116 85.4411 152.75 77.1004 166.217 76.708C170.635 76.579 174.938 77.1851 179.242 77.9793L179.214 51.8561V51.8568Z" fill="#1A1A1A"/>
<path d="M451.118 159.874H480.56V51.8271H451.118V159.874Z" fill="#1A1A1A"/>
<path d="M477.576 35.3245C483.987 28.9135 483.987 18.5191 477.576 12.1081C471.164 5.69711 460.77 5.69711 454.359 12.1081C447.948 18.5191 447.948 28.9135 454.359 35.3245C460.77 41.7355 471.164 41.7355 477.576 35.3245Z" fill="#1A1A1A"/>
</svg>
